<?xml version="1.0" encoding="UTF-8"?>
<!DOCTYPE svg PUBLIC "-//W3C//DTD SVG 1.1//EN" "http://www.w3.org/Graphics/SVG/1.1/DTD/svg11.dtd">
<!-- Creator: CorelDRAW -->
<svg xmlns="http://www.w3.org/2000/svg" xml:space="preserve" width="2048px" height="2048px" style="shape-rendering:geometricPrecision; text-rendering:geometricPrecision; image-rendering:optimizeQuality; fill-rule:evenodd; clip-rule:evenodd"
viewBox="0 0 2048 2048"
 xmlns:xlink="http://www.w3.org/1999/xlink">
 <defs>
  <style type="text/css">
   <![CDATA[
    .fil2 {fill:none}
    .fil1 {fill:#00695C}
    .fil0 {fill:#00897B}
    .fil3 {fill:#FBC02D}
    .fil6 {fill:#FFEE58}
    .fil4 {fill:#F9A825;fill-rule:nonzero}
    .fil5 {fill:#FDD835;fill-rule:nonzero}
   ]]>
  </style>
   <clipPath id="id0">
    <path d="M1024 0c565.539,0 1024,458.461 1024,1024 0,565.539 -458.461,1024 -1024,1024 -565.539,0 -1024,-458.461 -1024,-1024 0,-565.539 458.461,-1024 1024,-1024z"/>
   </clipPath>
 </defs>
 <g id="Layer_x0020_1">
  <metadata id="CorelCorpID_0Corel-Layer"/>
  <path class="fil0" d="M1024 0c565.539,0 1024,458.461 1024,1024 0,565.539 -458.461,1024 -1024,1024 -565.539,0 -1024,-458.461 -1024,-1024 0,-565.539 458.461,-1024 1024,-1024z"/>
  <g style="clip-path:url(#id0)">
   <g id="_341219632">
    <g>
     <polygon id="_3332932801" class="fil1" points="1474.13,592.805 2610.01,1728.69 2718.19,2027.21 1582.31,891.327 "/>
     <polygon id="_333293616" class="fil1" points="1582.31,891.327 2718.19,2027.21 2719.88,2031.89 1584,896.003 "/>
     <polygon id="_333293784" class="fil1" points="1584,896.003 2719.88,2031.89 2715.58,2034.46 1579.7,898.582 "/>
     <polygon id="_333294672" class="fil1" points="1579.7,898.582 2715.58,2034.46 2712.45,2036.36 2709.28,2038.31 2706.07,2040.32 2702.83,2042.36 2699.56,2044.44 2696.25,2046.56 2692.91,2048.69 2689.54,2050.85 2686.14,2053.03 2682.71,2055.21 2679.25,2057.39 2675.77,2059.57 2672.26,2061.74 2668.72,2063.9 2665.16,2066.04 2661.57,2068.15 2657.97,2070.22 2654.34,2072.26 2650.69,2074.26 2647.02,2076.21 2643.33,2078.1 2639.63,2079.93 2635.9,2081.69 2632.16,2083.38 2628.41,2084.99 2624.64,2086.52 2620.86,2087.95 2617.07,2089.29 2613.26,2090.54 2609.44,2091.67 2605.62,2092.68 2601.79,2093.58 1465.91,957.702 1469.74,956.802 1473.56,955.784 1477.38,954.653 1481.18,953.413 1484.98,952.072 1488.76,950.635 1492.53,949.109 1496.28,947.496 1500.02,945.806 1503.74,944.044 1507.45,942.215 1511.14,940.324 1514.81,938.377 1518.46,936.381 1522.09,934.342 1525.69,932.265 1529.28,930.154 1532.84,928.019 1536.38,925.862 1539.89,923.69 1543.37,921.51 1546.83,919.326 1550.26,917.144 1553.66,914.971 1557.03,912.812 1560.37,910.673 1563.68,908.56 1566.95,906.478 1570.19,904.433 1573.4,902.433 1576.57,900.48 "/>
     <polygon id="_333294696" class="fil1" points="1501.57,980.509 2637.45,2116.39 2638.62,2117.73 2639.75,2119.09 2640.84,2120.47 2641.91,2121.89 2642.93,2123.32 2643.92,2124.77 2644.88,2126.25 2645.79,2127.75 2646.67,2129.26 2647.52,2130.8 2648.32,2132.36 2649.09,2133.93 2649.82,2135.52 2650.51,2137.12 2651.17,2138.75 2651.78,2140.38 1515.9,1004.5 1515.29,1002.86 1514.63,1001.24 1513.94,999.635 1513.21,998.045 1512.44,996.473 1511.64,994.918 1510.79,993.381 1509.91,991.863 1509,990.367 1508.04,988.891 1507.05,987.435 1506.02,986.003 1504.96,984.592 1503.87,983.207 1502.73,981.845 "/>
     <polygon id="_333294648" class="fil1" points="1515.9,1004.5 2651.78,2140.38 2652.36,2142.03 2652.89,2143.7 2653.39,2145.37 2653.85,2147.06 2654.27,2148.76 2654.64,2150.47 2654.98,2152.19 2655.27,2153.92 2655.52,2155.66 2655.74,2157.4 2655.91,2159.15 2656.03,2160.91 2656.12,2162.67 2656.16,2164.43 2656.16,2166.2 2656.12,2167.97 2656.03,2169.75 2655.9,2171.52 2655.72,2173.29 2655.5,2175.07 2655.24,2176.84 2654.93,2178.61 2654.58,2180.38 2654.18,2182.15 2653.73,2183.91 2653.24,2185.66 2652.7,2187.41 2652.12,2189.16 2651.49,2190.89 2650.81,2192.62 2650.08,2194.34 2649.31,2196.05 1513.43,1060.17 1514.2,1058.46 1514.93,1056.74 1515.6,1055.01 1516.24,1053.27 1516.82,1051.53 1517.36,1049.78 1517.85,1048.02 1518.3,1046.26 1518.7,1044.5 1519.05,1042.73 1519.36,1040.96 1519.62,1039.19 1519.84,1037.41 1520.02,1035.64 1520.15,1033.86 1520.24,1032.09 1520.28,1030.32 1520.28,1028.55 1520.24,1026.79 1520.15,1025.02 1520.02,1023.27 1519.86,1021.52 1519.64,1019.77 1519.39,1018.04 1519.1,1016.31 1518.76,1014.59 1518.38,1012.88 1517.97,1011.18 1517.51,1009.49 1517.01,1007.81 1516.48,1006.15 "/>
     <polygon id="_333294552" class="fil1" points="1513.43,1060.17 2649.31,2196.05 2649.31,2196.14 1513.43,1060.26 "/>
     <polygon id="_333295200" class="fil1" points="1513.43,1060.26 2649.31,2196.14 2647.75,2199.26 2646.06,2202.27 2644.25,2205.17 2642.32,2207.96 2640.27,2210.64 2638.12,2213.21 2635.86,2215.66 2633.5,2218 2631.05,2220.21 2628.5,2222.31 2625.88,2224.28 2623.17,2226.13 2620.39,2227.85 2617.54,2229.45 2614.63,2230.91 2611.65,2232.25 1475.77,1096.37 1478.74,1095.03 1481.66,1093.57 1484.51,1091.97 1487.29,1090.25 1490,1088.4 1492.62,1086.42 1495.17,1084.33 1497.62,1082.11 1499.98,1079.78 1502.24,1077.33 1504.39,1074.76 1506.44,1072.08 1508.37,1069.29 1510.18,1066.39 1511.87,1063.38 "/>
     <polygon id="_333294864" class="fil1" points="1475.77,1096.37 2611.65,2232.25 2599.64,2250.87 1463.76,1114.99 "/>
     <polygon id="_333295224" class="fil1" points="1468.08,1117.49 2603.96,2253.37 2604.28,2254.79 2604.57,2256.21 2604.83,2257.64 2605.06,2259.08 2605.26,2260.52 2605.43,2261.97 2605.58,2263.42 2605.69,2264.87 2605.78,2266.33 2605.83,2267.8 2605.86,2269.26 2605.85,2270.73 2605.81,2272.2 2605.75,2273.67 2605.65,2275.15 2605.52,2276.62 2605.36,2278.09 2605.17,2279.57 2604.94,2281.04 2604.69,2282.52 2604.4,2283.99 2604.08,2285.46 2603.73,2286.92 2603.35,2288.39 2602.93,2289.85 2602.48,2291.31 2602,2292.76 2601.48,2294.21 2600.93,2295.66 2600.35,2297.1 2599.73,2298.53 2599.08,2299.96 1463.2,1164.08 1463.85,1162.65 1464.47,1161.21 1465.05,1159.77 1465.6,1158.33 1466.12,1156.88 1466.6,1155.42 1467.05,1153.97 1467.47,1152.51 1467.85,1151.04 1468.2,1149.57 1468.52,1148.1 1468.81,1146.63 1469.06,1145.16 1469.29,1143.69 1469.48,1142.21 1469.64,1140.74 1469.77,1139.26 1469.86,1137.79 1469.93,1136.32 1469.97,1134.85 1469.97,1133.38 1469.95,1131.92 1469.89,1130.45 1469.81,1128.99 1469.7,1127.54 1469.55,1126.09 1469.38,1124.64 1469.18,1123.19 1468.95,1121.76 1468.69,1120.33 1468.4,1118.9 "/>
     <polygon id="_333294984" class="fil1" points="1463.2,1164.08 2599.08,2299.96 2598.29,2301.59 2597.47,2303.2 2596.61,2304.78 2595.72,2306.32 2594.79,2307.84 2593.83,2309.33 2592.84,2310.78 2591.81,2312.21 2590.76,2313.6 2589.67,2314.96 2588.56,2316.3 2587.42,2317.6 2586.25,2318.87 2585.05,2320.1 2583.82,2321.31 2582.57,2322.48 2581.3,2323.62 2580,2324.73 2578.67,2325.8 2577.33,2326.84 2575.96,2327.85 2574.57,2328.82 2573.16,2329.76 2571.72,2330.67 2570.27,2331.54 2568.8,2332.38 2567.31,2333.18 2565.8,2333.95 2564.28,2334.68 2562.74,2335.37 2561.18,2336.03 2559.61,2336.66 1423.73,1200.78 1425.3,1200.15 1426.86,1199.49 1428.4,1198.79 1429.92,1198.06 1431.43,1197.3 1432.92,1196.49 1434.39,1195.66 1435.84,1194.79 1437.28,1193.88 1438.69,1192.94 1440.08,1191.97 1441.45,1190.96 1442.79,1189.92 1444.12,1188.85 1445.42,1187.74 1446.69,1186.6 1447.94,1185.43 1449.17,1184.22 1450.37,1182.98 1451.54,1181.72 1452.68,1180.41 1453.79,1179.08 1454.88,1177.72 1455.93,1176.32 1456.95,1174.9 1457.95,1173.44 1458.91,1171.96 1459.83,1170.44 1460.73,1168.89 1461.59,1167.32 1462.41,1165.71 "/>
     <polygon id="_333295056" class="fil1" points="1423.73,1200.78 2559.61,2336.66 2558.17,2337.2 2556.72,2337.7 2555.26,2338.18 2553.78,2338.62 2552.3,2339.04 2550.81,2339.42 2549.31,2339.78 2547.8,2340.1 1411.92,1204.22 1413.43,1203.9 1414.93,1203.54 1416.42,1203.16 1417.9,1202.74 1419.38,1202.3 1420.84,1201.82 1422.29,1201.31 "/>
     <polygon id="_333295248" class="fil1" points="1411.92,1204.22 2547.8,2340.1 2543.64,2337.7 1407.76,1201.82 "/>
     <polygon id="_333295440" class="fil1" points="1407.76,1201.82 2543.64,2337.7 2533.79,2352.97 1397.91,1217.08 "/>
     <polygon id="_333295560" class="fil1" points="1403.65,1220.4 2539.53,2356.28 2539.64,2357.46 2539.73,2358.65 2539.8,2359.83 2539.85,2361.02 2539.88,2362.21 2539.89,2363.4 2539.88,2364.6 2539.85,2365.79 2539.8,2366.99 2539.73,2368.18 2539.64,2369.38 2539.54,2370.58 2539.41,2371.78 2539.26,2372.97 2539.09,2374.17 2538.9,2375.37 2538.69,2376.56 2538.46,2377.76 2538.21,2378.95 2537.93,2380.14 2537.64,2381.33 2537.33,2382.52 2536.99,2383.7 2536.64,2384.88 2536.26,2386.06 2535.86,2387.24 2535.44,2388.41 2535,2389.58 2534.54,2390.75 2534.05,2391.91 2533.55,2393.07 2533.02,2394.22 1397.14,1258.34 1397.66,1257.19 1398.17,1256.03 1398.66,1254.87 1399.12,1253.7 1399.56,1252.53 1399.98,1251.36 1400.38,1250.18 1400.76,1249 1401.11,1247.82 1401.45,1246.63 1401.76,1245.45 1402.05,1244.26 1402.33,1243.07 1402.58,1241.87 1402.81,1240.68 1403.02,1239.48 1403.21,1238.29 1403.38,1237.09 1403.53,1235.89 1403.66,1234.7 1403.76,1233.5 1403.85,1232.3 1403.92,1231.11 1403.97,1229.91 1404,1228.71 1404.01,1227.52 1404,1226.33 1403.97,1225.14 1403.92,1223.95 1403.85,1222.76 1403.76,1221.58 "/>
     <polygon id="_333295632" class="fil1" points="1397.14,1258.34 2533.02,2394.22 2533.02,2394.32 1397.14,1258.44 "/>
     <polygon id="_333295704" class="fil1" points="1397.14,1258.44 2533.02,2394.32 2532.2,2396 2531.34,2397.66 2530.45,2399.28 2529.51,2400.88 2528.55,2402.44 2527.55,2403.97 2526.51,2405.47 2525.44,2406.94 2524.34,2408.37 2523.21,2409.78 2522.04,2411.15 2520.85,2412.48 2519.62,2413.78 2518.37,2415.05 2517.09,2416.29 2515.78,2417.49 2514.45,2418.66 2513.09,2419.79 2511.71,2420.88 2510.3,2421.95 2508.87,2422.97 2507.41,2423.96 2505.94,2424.91 2504.44,2425.83 2502.92,2426.71 2501.39,2427.55 2499.83,2428.36 2498.26,2429.13 2496.67,2429.86 2495.06,2430.55 2493.44,2431.2 2491.8,2431.82 1355.92,1295.94 1357.56,1295.32 1359.18,1294.67 1360.79,1293.98 1362.38,1293.25 1363.95,1292.48 1365.51,1291.67 1367.04,1290.83 1368.56,1289.95 1370.05,1289.03 1371.53,1288.08 1372.99,1287.09 1374.42,1286.06 1375.82,1285 1377.21,1283.91 1378.57,1282.77 1379.9,1281.61 1381.21,1280.41 1382.49,1279.17 1383.74,1277.9 1384.97,1276.6 1386.16,1275.26 1387.33,1273.89 1388.46,1272.49 1389.56,1271.06 1390.63,1269.59 1391.66,1268.09 1392.67,1266.56 1393.63,1265 1394.56,1263.4 1395.46,1261.78 1396.32,1260.12 "/>
     <polygon id="_333295464" class="fil1" points="1355.92,1295.94 2491.8,2431.82 2490.49,2432.28 2489.17,2432.72 2487.84,2433.13 2486.5,2433.52 2485.16,2433.88 2483.81,2434.21 2482.45,2434.52 2481.08,2434.81 1345.2,1298.93 1346.57,1298.64 1347.92,1298.33 1349.28,1298 1350.62,1297.63 1351.96,1297.25 1353.29,1296.84 1354.61,1296.4 "/>
     <polygon id="_333295968" class="fil1" points="1345.2,1298.93 2481.08,2434.81 2481.03,2434.78 1345.15,1298.89 "/>
     <polygon id="_333295608" class="fil1" points="1345.15,1298.89 2481.03,2434.78 2467.29,2456.08 1331.41,1320.19 "/>
     <polygon id="_333295752" class="fil1" points="1331.41,1320.19 2467.29,2456.08 2467.2,2457.84 2467.07,2459.61 2466.9,2461.38 2466.68,2463.15 2466.42,2464.92 2466.12,2466.68 2465.77,2468.45 2465.37,2470.2 2464.93,2471.96 2464.44,2473.71 2463.91,2475.45 2463.33,2477.18 2462.71,2478.91 2462.04,2480.63 2461.32,2482.34 2460.55,2484.04 1324.67,1348.16 1325.44,1346.46 1326.16,1344.75 1326.83,1343.03 1327.45,1341.3 1328.03,1339.56 1328.56,1337.82 1329.05,1336.07 1329.49,1334.32 1329.88,1332.56 1330.24,1330.8 1330.54,1329.04 1330.8,1327.27 1331.02,1325.5 1331.19,1323.73 1331.32,1321.96 "/>
     <polygon id="_333295416" class="fil1" points="1324.67,1348.16 2460.55,2484.04 2460.46,2484.04 1324.58,1348.16 "/>
     <polygon id="_333296088" class="fil1" points="1324.58,1348.16 2460.46,2484.04 2459.64,2485.73 2458.78,2487.4 2457.88,2489.03 2456.95,2490.63 2455.98,2492.2 2454.98,2493.74 2453.94,2495.24 2452.87,2496.72 2451.77,2498.16 2450.64,2499.57 2449.47,2500.94 2448.28,2502.28 2447.05,2503.59 2445.8,2504.87 2444.52,2506.11 2443.21,2507.31 2441.88,2508.48 2440.52,2509.62 2439.14,2510.72 2437.73,2511.78 2436.3,2512.81 2434.84,2513.8 2433.37,2514.76 2431.87,2515.68 2430.36,2516.56 2428.82,2517.4 2427.27,2518.21 2425.7,2518.98 2424.11,2519.71 2422.5,2520.4 2420.88,2521.06 2419.25,2521.67 1283.37,1385.79 1285,1385.17 1286.62,1384.52 1288.23,1383.83 1289.81,1383.1 1291.39,1382.33 1292.94,1381.52 1294.48,1380.68 1295.99,1379.79 1297.49,1378.88 1298.96,1377.92 1300.41,1376.93 1301.85,1375.9 1303.25,1374.83 1304.64,1373.74 1306,1372.6 1307.33,1371.43 1308.64,1370.22 1309.92,1368.98 1311.17,1367.71 1312.39,1366.4 1313.59,1365.06 1314.75,1363.69 1315.89,1362.28 1316.99,1360.84 1318.06,1359.36 1319.1,1357.86 1320.1,1356.32 1321.07,1354.75 1322,1353.15 1322.9,1351.52 1323.76,1349.85 "/>
     <polygon id="_333296712" class="fil1" points="1283.37,1385.79 2419.25,2521.67 2417.6,2522.25 2415.93,2522.78 2414.26,2523.28 2412.57,2523.74 2410.87,2524.15 2409.16,2524.53 2407.44,2524.86 2405.71,2525.16 2403.97,2525.41 2402.22,2525.62 2400.47,2525.79 2398.72,2525.92 2396.95,2526 2395.19,2526.05 2393.42,2526.05 2391.65,2526 2389.87,2525.91 2388.1,2525.78 2386.32,2525.61 2384.55,2525.38 2382.77,2525.12 2381,2524.81 2379.23,2524.45 2377.46,2524.05 2375.7,2523.61 2373.94,2523.11 2372.19,2522.57 2370.45,2521.99 2368.71,2521.36 2366.98,2520.68 2365.26,2519.95 2363.55,2519.17 1227.67,1383.29 1229.38,1384.07 1231.1,1384.79 1232.83,1385.47 1234.56,1386.11 1236.31,1386.69 1238.06,1387.23 1239.82,1387.72 1241.58,1388.17 1243.35,1388.57 1245.12,1388.93 1246.89,1389.24 1248.66,1389.5 1250.44,1389.72 1252.22,1389.9 1253.99,1390.03 1255.77,1390.12 1257.54,1390.16 1259.31,1390.16 1261.07,1390.12 1262.84,1390.04 1264.59,1389.91 1266.34,1389.74 1268.09,1389.53 1269.83,1389.28 1271.55,1388.98 1273.27,1388.65 1274.98,1388.27 1276.69,1387.85 1278.37,1387.4 1280.05,1386.9 1281.71,1386.36 "/>
     <polygon id="_333296232" class="fil1" points="1227.67,1383.29 2363.55,2519.17 2363.45,2519.17 1227.57,1383.29 "/>
     <polygon id="_333296760" class="fil1" points="1227.57,1383.29 2363.45,2519.17 2286.64,2501.86 1150.75,1365.98 "/>
     <polygon id="_333296784" class="fil1" points="1150.75,1365.98 2286.64,2501.86 2286.46,2503.8 2286.24,2505.74 2285.97,2507.68 2285.66,2509.62 2285.3,2511.56 2284.9,2513.5 2284.44,2515.43 2283.94,2517.36 2283.4,2519.29 2282.8,2521.21 2282.16,2523.13 2281.47,2525.04 2280.73,2526.94 2279.94,2528.83 2279.11,2530.71 2278.22,2532.59 1142.34,1396.71 1143.23,1394.83 1144.06,1392.95 1144.85,1391.06 1145.59,1389.15 1146.28,1387.24 1146.92,1385.33 1147.52,1383.41 1148.06,1381.48 1148.56,1379.55 1149.01,1377.61 1149.42,1375.68 1149.78,1373.74 1150.09,1371.8 1150.36,1369.86 1150.58,1367.92 "/>
     <polygon id="_333296736" class="fil1" points="1142.34,1396.71 2278.22,2532.59 2278.14,2532.59 1142.26,1396.71 "/>
     <polygon id="_333296304" class="fil1" points="1142.26,1396.71 2278.14,2532.59 2277.95,2532.98 1142.06,1397.1 "/>
     <polygon id="_333296376" class="fil1" points="1142.06,1397.1 2277.95,2532.98 2277.95,2533.07 1142.06,1397.18 "/>
     <polygon id="_333296592" class="fil1" points="1142.06,1397.18 2277.95,2533.07 2277.7,2533.56 2277.46,2534.03 2277.24,2534.47 2277.02,2534.9 2276.81,2535.29 2276.61,2535.67 2276.43,2536.02 2276.25,2536.34 1140.37,1400.46 1140.55,1400.13 1140.73,1399.78 1140.93,1399.41 1141.14,1399.01 1141.35,1398.59 1141.58,1398.15 1141.82,1397.68 "/>
     <polygon id="_333296640" class="fil1" points="1140.37,1400.46 2276.25,2536.34 2275.32,2538 2274.34,2539.64 2273.32,2541.28 2272.26,2542.91 2271.17,2544.53 2270.03,2546.14 2268.86,2547.73 2267.65,2549.32 2266.4,2550.88 2265.12,2552.43 2263.81,2553.97 2262.47,2555.49 2261.09,2556.99 2259.69,2558.47 2258.25,2559.93 2256.79,2561.36 2255.3,2562.78 2253.78,2564.17 2252.24,2565.54 2250.68,2566.88 2249.09,2568.19 2247.48,2569.48 2245.85,2570.74 2244.2,2571.97 2242.53,2573.17 2240.84,2574.34 2239.14,2575.47 2237.42,2576.57 2235.69,2577.64 2233.95,2578.67 2232.19,2579.66 2230.42,2580.62 1094.54,1444.74 1096.31,1443.78 1098.06,1442.79 1099.81,1441.76 1101.54,1440.69 1103.26,1439.59 1104.96,1438.45 1106.65,1437.29 1108.32,1436.09 1109.97,1434.86 1111.6,1433.6 1113.21,1432.31 1114.79,1431 1116.36,1429.66 1117.9,1428.29 1119.42,1426.9 1120.91,1425.48 1122.37,1424.04 1123.8,1422.58 1125.21,1421.1 1126.59,1419.6 1127.93,1418.09 1129.24,1416.55 1130.52,1415 1131.77,1413.43 1132.98,1411.85 1134.15,1410.26 1135.29,1408.65 1136.38,1407.03 1137.44,1405.4 1138.46,1403.76 1139.44,1402.12 "/>
     <polygon id="_333296688" class="fil1" points="1094.54,1444.74 2230.42,2580.62 2228.44,2581.64 2226.45,2582.61 2224.44,2583.53 2222.42,2584.41 2220.39,2585.24 2218.34,2586.02 2216.29,2586.75 2214.23,2587.42 2212.16,2588.04 2210.08,2588.61 2208,2589.12 2205.91,2589.58 2203.83,2589.98 2201.73,2590.31 2199.64,2590.59 2197.55,2590.81 2195.46,2590.96 2193.37,2591.05 2191.29,2591.08 2189.21,2591.04 2187.13,2590.93 2185.06,2590.75 2183,2590.51 2180.95,2590.19 2178.91,2589.81 2176.88,2589.35 2174.87,2588.81 2172.86,2588.21 2170.87,2587.52 2168.9,2586.76 2166.94,2585.92 2165,2585 1029.12,1449.12 1031.06,1450.04 1033.02,1450.88 1034.99,1451.64 1036.98,1452.32 1038.98,1452.93 1041,1453.47 1043.03,1453.93 1045.07,1454.31 1047.12,1454.63 1049.18,1454.87 1051.25,1455.05 1053.33,1455.15 1055.41,1455.19 1057.49,1455.17 1059.58,1455.08 1061.67,1454.93 1063.76,1454.71 1065.85,1454.43 1067.94,1454.09 1070.03,1453.7 1072.12,1453.24 1074.2,1452.73 1076.28,1452.16 1078.35,1451.54 1080.41,1450.86 1082.46,1450.14 1084.5,1449.36 1086.54,1448.53 1088.56,1447.65 1090.56,1446.73 1092.56,1445.75 "/>
     <polygon id="_333296976" class="fil1" points="1029.12,1449.12 2165,2585 2164.92,2585 1029.03,1449.12 "/>
     <polygon id="_333297264" class="fil1" points="1027,1447.99 2162.89,2583.87 2160.14,2582.38 2157.34,2580.88 2154.51,2579.37 2151.64,2577.85 2148.73,2576.33 2145.81,2574.81 2142.87,2573.29 2139.92,2571.77 2136.96,2570.26 2134.01,2568.76 2131.07,2567.26 2128.14,2565.79 2125.24,2564.33 2122.36,2562.89 2119.51,2561.47 2116.71,2560.08 2113.95,2558.72 2111.25,2557.39 2108.61,2556.09 2106.03,2554.82 2103.53,2553.6 2101.1,2552.42 2098.76,2551.28 2096.51,2550.19 2094.36,2549.14 2092.31,2548.15 2090.38,2547.22 2088.56,2546.34 2086.86,2545.53 2085.29,2544.78 2083.86,2544.09 2082.57,2543.47 946.692,1407.59 947.981,1408.21 949.412,1408.89 950.979,1409.65 952.676,1410.46 954.496,1411.34 956.431,1412.27 958.479,1413.26 960.63,1414.3 962.879,1415.4 965.22,1416.53 967.646,1417.72 970.15,1418.94 972.727,1420.2 975.37,1421.5 978.073,1422.83 980.829,1424.2 983.632,1425.59 986.476,1427.01 989.355,1428.45 992.26,1429.91 995.188,1431.38 998.131,1432.87 1001.08,1434.38 1004.04,1435.89 1006.99,1437.41 1009.93,1438.93 1012.85,1440.45 1015.75,1441.97 1018.63,1443.49 1021.46,1445 1024.26,1446.5 "/>
     <polygon id="_333297048" class="fil1" points="1029.03,1449.12 2164.92,2585 2164.76,2584.92 2164.57,2584.82 2164.36,2584.71 2164.12,2584.58 2163.85,2584.44 2163.55,2584.28 2163.22,2584.1 2162.87,2583.9 1026.99,1448.02 1027.34,1448.22 1027.67,1448.39 1027.97,1448.56 1028.24,1448.7 1028.48,1448.83 1028.69,1448.94 1028.88,1449.04 "/>
     <polygon id="_333297336" class="fil1" points="946.692,1407.59 2082.57,2543.47 2081.28,2542.85 2080.13,2542.3 2079.13,2541.81 2078.27,2541.4 2077.56,2541.05 2077,2540.77 2076.59,2540.57 2076.34,2540.43 940.461,1404.55 940.711,1404.68 941.117,1404.89 941.677,1405.17 942.387,1405.52 943.247,1405.93 944.252,1406.42 945.401,1406.97 "/>
     <polygon id="_333297528" class="fil1" points="940.461,1404.55 2076.34,2540.43 2072.34,2538.06 2068.51,2535.81 2064.85,2533.69 2061.36,2531.68 2058.03,2529.79 2054.85,2528 2051.83,2526.32 2048.95,2524.75 2046.22,2523.27 2043.62,2521.88 2041.16,2520.59 2038.82,2519.38 2036.61,2518.26 2034.52,2517.22 2032.54,2516.25 2030.66,2515.36 2028.9,2514.53 2027.23,2513.77 2025.66,2513.07 2024.17,2512.43 2022.78,2511.84 2021.46,2511.3 2020.22,2510.81 2019.05,2510.36 2017.95,2509.95 2016.91,2509.57 2015.92,2509.23 2014.99,2508.91 2014.1,2508.62 2013.26,2508.34 2012.46,2508.09 2011.69,2507.84 875.807,1371.96 876.578,1372.2 877.381,1372.46 878.224,1372.73 879.109,1373.03 880.041,1373.35 881.025,1373.69 882.067,1374.07 883.17,1374.48 884.339,1374.93 885.581,1375.42 886.896,1375.96 888.294,1376.55 889.776,1377.19 891.349,1377.89 893.016,1378.65 894.783,1379.48 896.655,1380.37 898.634,1381.34 900.728,1382.38 902.942,1383.5 905.277,1384.71 907.74,1386 910.338,1387.39 913.071,1388.86 915.948,1390.44 918.97,1392.12 922.145,1393.91 925.477,1395.8 928.97,1397.81 932.627,1399.93 936.457,1402.18 "/>
     <polygon id="_333297144" class="fil1" points="875.807,1371.96 2011.69,2507.84 2010.64,2507.51 2009.63,2507.19 2008.64,2506.87 2007.67,2506.54 2006.71,2506.2 2005.75,2505.85 2004.79,2505.48 2003.81,2505.08 2002.82,2504.65 2001.81,2504.18 2000.75,2503.67 1999.66,2503.12 1998.53,2502.51 1997.34,2501.83 1996.08,2501.1 1994.76,2500.3 858.882,1364.41 860.202,1365.22 861.455,1365.95 862.647,1366.62 863.783,1367.23 864.873,1367.79 865.925,1368.3 866.942,1368.77 867.934,1369.2 868.907,1369.6 869.87,1369.97 870.829,1370.32 871.789,1370.66 872.761,1370.98 873.749,1371.31 874.763,1371.63 "/>
     <polygon id="_333297192" class="fil1" points="745.308,1274.6 1881.19,2410.49 1824.87,2397.79 688.985,1261.91 "/>
     <polygon id="_333297480" class="fil1" points="778.393,1324.98 1914.27,2460.86 1912.49,2459.83 1910.75,2458.76 1909.07,2457.64 1907.43,2456.48 1905.85,2455.27 1904.32,2454.03 1902.84,2452.74 766.964,1316.86 768.442,1318.15 769.972,1319.39 771.553,1320.6 773.186,1321.76 774.869,1322.88 776.605,1323.95 "/>
     <polygon id="_333297600" class="fil1" points="858.882,1364.41 1994.76,2500.3 1914.36,2460.95 778.477,1325.06 "/>
     <polygon id="_333298344" class="fil1" points="688.985,1261.91 1824.87,2397.79 1822.21,2397.71 1819.55,2397.64 1816.89,2397.59 1814.23,2397.56 1811.59,2397.53 1808.97,2397.52 1806.37,2397.52 1803.81,2397.54 1801.28,2397.56 1798.79,2397.59 1796.35,2397.63 1793.96,2397.68 1791.63,2397.74 1789.37,2397.8 1787.17,2397.86 1785.06,2397.93 1783.03,2398 1781.08,2398.07 1779.23,2398.15 1777.48,2398.22 1775.84,2398.3 1774.31,2398.37 1772.89,2398.44 1771.6,2398.51 1770.44,2398.57 1769.41,2398.62 1768.52,2398.67 1767.78,2398.72 1767.2,2398.75 1766.77,2398.78 1766.5,2398.8 1766.41,2398.8 630.526,1262.92 630.622,1262.91 630.886,1262.9 631.316,1262.87 631.903,1262.84 632.643,1262.79 633.53,1262.74 634.557,1262.69 635.719,1262.62 637.01,1262.56 638.425,1262.49 639.957,1262.42 641.601,1262.34 643.352,1262.27 645.201,1262.19 647.145,1262.12 649.178,1262.05 651.293,1261.98 653.486,1261.91 655.749,1261.85 658.078,1261.8 660.465,1261.75 662.906,1261.71 665.395,1261.68 667.926,1261.65 670.493,1261.64 673.091,1261.64 675.713,1261.65 678.352,1261.67 681.006,1261.71 683.666,1261.76 686.327,1261.83 "/>
     <polygon id="_333297648" class="fil1" points="630.526,1262.92 1766.41,2398.8 1748.12,2400.02 612.239,1264.14 "/>
    </g>
    <path id="_341219968" class="fil1" d="M1474.13 592.805l108.171 298.521 1.69488 4.67599 -4.29803 2.57953c-33.2221,19.9311 -72.867,50.1815 -113.797,59.1201l9.9508 4.65709 2.51929 0.855119c18.1595,8.60198 31.1764,23.7579 37.5248,41.2843 6.35315,17.5347 6.03426,37.487 -2.47323,55.6678l0 0.0956694c-7.95591,16.8933 -21.6473,29.341 -37.6559,36.1028l-12.0118 18.6236 4.32402 2.49685c3.53032,15.0862 2.24055,31.389 -4.88032,46.5922 -8.22757,17.5961 -22.6429,30.2256 -39.4689,36.6981 -3.83032,1.47284 -7.78347,2.62441 -11.8134,3.44173l-4.16221 -2.40236 -9.84804 15.2693 5.74252 3.31536c1.24725,12.5847 -0.766536,25.6583 -6.51615,37.9418l0 0.0956694c-8.54056,18.1394 -23.6799,31.1481 -41.2134,37.5 -3.4878,1.26496 -7.07363,2.26417 -10.7221,2.98819l-0.0555119 -0.0318898 -13.7374 21.3c-0.343701,9.42875 -2.52874,18.9248 -6.73583,27.9638l-0.0944883 0c-8.55946,18.2315 -23.6965,31.2839 -41.2122,37.6311 -17.5323,6.35197 -37.5012,6.02717 -55.6996,-2.49803l-0.0956694 0 -76.8154 -17.3114c-0.81378,10.3299 -3.56221,20.7638 -8.413,30.7264l-0.0838583 0 -0.193701 0.394488 0 0.0838583c-0.670867,1.34882 -1.23425,2.4378 -1.69606,3.27756 -9.72402,17.6811 -26.8961,34.2803 -45.8327,44.2748 -21.0106,11.0917 -44.8252,14.6185 -65.4166,4.38189l-0.0850394 0c-0.38504,-0.19252 -1.06181,-0.555119 -2.04803,-1.09606l0.0188977 -0.0354331c-29.0173,-15.789 -67.3465,-34.1788 -80.3127,-40.3985 -3.62953,-1.74095 -5.77205,-2.76969 -6.2315,-3.04252 -43.6642,-25.9524 -56.5914,-30.0378 -64.6536,-32.5843 -5.66811,-1.79173 -9.68505,-3.06024 -16.9252,-7.54843l-80.4048 -39.3485 -0.0838583 -0.0838583c-19.3571,-10.728 -29.6941,-29.3906 -33.0851,-50.3764l-56.3233 -12.6933c-28.2957,-0.979135 -58.3689,1.00512 -58.4587,1.00984l-18.287 1.2189 -6.2563 -17.2618 -130.304 -359.601 -11.6799 -32.2323 34.3122 -0.429922 116.509 -1.45512 1.14685 0c43.7398,1.61693 65.4107,-20.374 69.6319,-25.2083 2.43543,-3.49725 62.6221,-89.1816 132.209,-114.397 66.2126,-23.9929 114.672,-1.26496 124.818,4.2l39.9792 17.9339 6.17363 2.76969c23.648,-27.3768 47.4733,-54.5717 71.7438,-81.4418 10.9347,-11.465 22.4587,-20.4071 38.6481,-23.8358 21.1477,-4.4752 45.4512,2.51103 65.191,9.763 29.9032,10.9843 59.7615,22.0902 89.5879,33.2835 12.7417,4.78229 26.6244,10.7976 39.4642,14.8453 11.6291,3.66614 25.2425,-0.184252 35.2784,-6.38268l15.5917 -9.63072 -0.0602363 -0.0992127c41.3351,-25.7906 82.5095,-51.8953 123.571,-78.1064l6.34016 -4.04764z"/>
   </g>
  </g>
  <path class="fil2" d="M1024 0c565.539,0 1024,458.461 1024,1024 0,565.539 -458.461,1024 -1024,1024 -565.539,0 -1024,-458.461 -1024,-1024 0,-565.539 458.461,-1024 1024,-1024z"/>
  <polygon class="fil3" points="1071.59,933.055 1290.32,981.662 1489.35,1075.31 1314.62,1346.22 1071.59,1311.86 "/>
  <path class="fil4" d="M1472.2 1097.77c-0.392126,0.141732 -0.786615,0.281103 -1.1811,0.415748l-171.028 -98.7438c-4.34528,-2.51693 -9.90946,-1.03465 -12.4252,3.31063 -2.51575,4.34528 -1.03465,9.90828 3.31063,12.4252l177.209 102.312c3.53032,15.0862 2.24055,31.389 -4.88032,46.5922 -8.22757,17.5961 -22.6429,30.2256 -39.4689,36.6981 -3.83032,1.47284 -7.78347,2.62441 -11.8134,3.44173l-185.312 -106.989c-4.34528,-2.49685 -9.89174,-0.998032 -12.3886,3.34725 -2.49685,4.3441 -0.998032,9.89174 3.34725,12.3886l186.085 107.436c1.24725,12.5847 -0.766536,25.6583 -6.51615,37.9418l0 0.0956694c-8.54056,18.1394 -23.6799,31.1481 -41.2134,37.5 -3.4878,1.26496 -7.07363,2.26417 -10.7221,2.98819l-197.217 -113.864c-4.34528,-2.51575 -9.90828,-1.03465 -12.424,3.31063 -2.51693,4.34528 -1.03465,9.90946 3.31063,12.4252l192.364 111.062c0.944883,12.1075 -1.11024,24.5858 -6.56221,36.2988l-0.0944883 0c-8.55946,18.2315 -23.6965,31.2839 -41.2122,37.6311 -17.5323,6.35197 -37.5012,6.02717 -55.6996,-2.49803l-0.0956694 0 -538.585 -121.38c-28.2957,-0.979135 -58.3689,1.00512 -58.4587,1.00984l-18.287 1.2189 -6.2563 -17.2618 -130.304 -359.601 -11.6799 -32.2323 34.3122 -0.429922 116.509 -1.45512 1.14685 0c43.7398,1.61693 65.4107,-20.374 69.6319,-25.2083 2.43543,-3.49725 62.6221,-89.1816 132.209,-114.397 66.2126,-23.9929 114.672,-1.26496 124.818,4.2l39.9792 17.9339 168.852 75.7394 54.5811 24.4831 0.381496 0.190158c40.2095,18.8705 58.2402,27.3449 70.1363,32.9351 9.97087,4.68544 15.6366,7.34882 26.4425,12.4122 14.2039,6.65552 37.2981,17.465 90.7453,42.4796l82.1127 38.4319 2.51929 0.855119c18.1595,8.60198 31.1764,23.7579 37.5248,41.2843 6.35315,17.5347 6.03426,37.487 -2.47323,55.6678l0 0.0956694c-8.54174,18.137 -23.6941,31.1504 -41.2288,37.5036z"/>
  <path class="fil5" d="M1054.3 1276.22c1.79055,3.16654 3.34961,6.46654 4.67363,9.8752 3.21733,-0.871654 6.47953,-1.53898 9.77009,-1.9878 13.6134,-1.85433 27.5953,0.00354331 40.6878,6.33308l0.0838583 0.0838583 0.3 0.147638 0.0838583 0c19.0571,9.43465 32.1331,26.2654 37.8697,45.8835 5.53701,18.9307 4.16339,40.4622 -5.42363,60.1512l-0.0838583 0 -0.193701 0.394488 0 0.0838583c-0.670867,1.35 -1.23425,2.4378 -1.69606,3.27756 -9.72402,17.6811 -26.8961,34.2803 -45.8327,44.2748 -21.0106,11.0906 -44.8252,14.6185 -65.4178,4.38189l-0.0838583 0c-0.38504,-0.19252 -1.06181,-0.555119 -2.04803,-1.09724l0.0188977 -0.034252c-29.0173,-15.789 -67.3465,-34.1788 -80.3127,-40.3996 -3.62953,-1.73977 -5.77205,-2.76851 -6.2315,-3.04134 -43.6642,-25.9524 -56.5914,-30.0378 -64.6536,-32.5843 -5.66811,-1.79055 -9.68505,-3.06024 -16.9252,-7.54843l-80.4048 -39.3485 -0.0838583 -0.0838583c-19.6725,-10.9028 -30.0272,-29.9977 -33.2445,-51.3993 -3.3,-21.9484 1.25433,-46.878 10.9465,-66.5221l0 -0.0838583c9.83623,-19.7681 26.2276,-34.1469 44.7827,-41.4248 19.148,-7.51064 40.6181,-7.48701 59.8784,1.82717 12.1807,5.89843 21.6662,14.8854 28.4551,25.7303 1.89567,3.02717 3.56811,6.18426 5.01969,9.44174 3.42166,-0.827953 6.88701,-1.42441 10.3784,-1.7752 12.5386,-1.25551 25.3347,0.670867 37.4481,6.47481l0.167717 0c12.2055,5.94922 21.7016,14.9539 28.474,25.8012 1.88268,3.01654 3.54449,6.17008 4.98544,9.43583 3.41339,-0.820867 6.87402,-1.41496 10.3642,-1.76457 12.5776,-1.26024 25.3772,0.657875 37.4551,6.48308 13.5142,6.55394 23.8536,16.748 30.7925,29.0138z"/>
  <path class="fil6" d="M1474.13 592.805l-6.34016 4.04646c-41.0611,26.2122 -82.2367,52.317 -123.571,78.1075l0.0602363 0.0992127 -15.5917 9.63072c-10.0358,6.19843 -23.648,10.0488 -35.2784,6.38268 -12.8398,-4.04646 -26.7225,-10.063 -39.4642,-14.8453 -29.8264,-11.1933 -59.6847,-22.2992 -89.5879,-33.2835 -19.7398,-7.25197 -44.0433,-14.2394 -65.191,-9.76182 -16.1894,3.42756 -27.7134,12.3685 -38.6481,23.8347 -34.0937,37.7445 -67.3087,76.1316 -100.388,114.762 -28.8768,33.7229 -57.1689,67.9087 -85.5272,102.065 -8.00316,9.64016 -15.3851,20.5559 -19.0642,32.6469 -3.88347,12.763 -3.55985,25.1221 1.00512,37.7221 3.06733,8.46733 8.76497,16.0902 15.4158,22.0902 8.65867,7.813 19.5697,13.4799 30.8906,16.2366 12.5776,3.0626 25.5213,2.52047 37.7162,-1.89803 9.38741,-3.40158 17.6351,-8.80158 24.7973,-15.5776l5.25 -5.42245c13.3217,-13.7599 26.3504,-27.9284 39.3614,-41.9847 20.954,-22.6347 41.8548,-45.3307 62.5997,-68.1591 60.5587,-66.6426 197.877,59.778 343.37,106.499 57.763,18.9272 117.093,-29.4189 163.752,-57.4134l4.29922 -2.57953 -1.69488 -4.67599 -108.171 -298.521z"/>
  <circle class="fil6" transform="matrix(0.751517 0.374207 -0.473757 0.951441 1071.59 1370.52)" r="63.9993"/>
  <circle class="fil6" transform="matrix(0.751517 0.374207 -0.473757 0.951441 990.422 1329.37)" r="63.9993"/>
  <circle class="fil6" transform="matrix(0.751517 0.374207 -0.473757 0.951441 909.72 1290.15)" r="63.9993"/>
  <circle class="fil6" transform="matrix(0.751517 0.374207 -0.473757 0.951441 828.554 1249)" r="63.9993"/>
 </g>
</svg>
